/* XPM */
static char *result[] = {
/* columns rows colors chars-per-pixel */
"50 50 31 1 ",
"  c #000300",
". c #040000",
"X c #000700",
"o c #040005",
"O c #0B0100",
"+ c #000903",
"@ c #000209",
"# c #131313",
"$ c #24112F",
"% c gray18",
"& c #373735",
"* c #464646",
"= c #555553",
"- c #555555",
"; c #565656",
": c #585858",
"> c #747474",
", c #96442C",
"< c #B98768",
"1 c #F2AF7D",
"2 c #A7A7A9",
"3 c #D3BEBB",
"4 c #E1BAAA",
"5 c #AEAEC5",
"6 c #C3C3C3",
"7 c #DCC7CC",
"8 c #FDD8C6",
"9 c gray88",
"0 c #F9EDFF",
"q c #F8F4F1",
"w c white",
/* pixels */
"66666666666666666666666666666666666666666666666666",
"66666666666666666666666666666666666666666666666666",
"66666666666666666666666%%%%%6666666666666666666666",
"66666666666666666666##%::::%%%%%%%6666666666666666",
"66666666666666666666##%::::%%%%%%%6666666666666666",
"6666666666666666666%%%:::%%*:::**%6666666666666666",
"6666666666666666#%%*::-****:::*%%#6666666666666666",
"6666666666666666#%%*::-****:::*%%#6666666666666666",
"66666666666666##%%%:::*;;:::**%%%%##66666666666666",
"66666666666666%%*::>:::::::::::>>*%%66666666666666",
"66666666666666%%*::>:::::::::::>>*%%66666666666666",
"66666666666666%%:::>>>*::>>>::::::%%%%666666666666",
"66666666666666%%:::>>>*::>>>::::::%%%%666666666666",
"66666666666666%%::::***:::::**::::::%%666666666666",
"66666666666666##:::******:::***:::**##666666666666",
"66666666666666##:::******:::***:::**##666666666666",
"66666666666666##****%%******%%****####666666666666",
"66666666666666##***888%****%888***##66666666666666",
"66666666666666##***888%****%888***##66666666666666",
"66666666666666##*%%888888888888%%*##66666666666666",
"66666666666666##1%%1<<<8888<<<1%%1##66666666666666",
"66666666666666##1%%1<<<8888<<<1%%1##66666666666666",
"66666666666666##1%%177.8888O331%%1##66666666666666",
"6666666666666666 oo100+8888@qq1ooX6666666666666666",
"6666666666666666 oo100+8888@qq1ooX6666666666666666",
"66666666666666666oo<8888888888<  66666666666666666",
"66666666666666666oo<8888888888<  66666666666666666",
"6666666666666666666ooo<1111<ooo6666666666666666666",
"66666666666666666$$9ww888888ww9$$66666666666666666",
"66666666666666666$$9ww888888ww9$$66666666666666666",
"6666666666666666$999wwwwwwwwww999$6666666666666666",
"6666666666666666$ww299999999992ww$6666666666666666",
"6666666666666666$ww299999999992ww$6666666666666666",
"66666666666666$$9ww$99wwwwww99$ww9$$66666666666666",
"6666666666666$114$$$99wwwwww99$$$411$$666666666666",
"6666666666666$114$$$99wwwwww99$$$411$$666666666666",
"6666666666666$441$$$===&&&&===$$$144$$666666666666",
"6666666666666$441$$$===&&&&===$$$144$$666666666666",
"66666666666666$$$66$===$$$$===$66$$$66666666666666",
"6666666666666666666$&&$6666$&&$6666666666666666666",
"6666666666666666666$&&$6666$&&$6666666666666666666",
"6666666666666666666$&&$6666$&&$6666666666666666666",
"66666666666666666$$,,,$6666$,,,$$66666666666666666",
"66666666666666666$$,,,$6666$,,,$$66666666666666666",
"66666666666666666$$555$6666$555$$66666666666666666",
"6666666666666666666$$$666666$$$6666666666666666666",
"6666666666666666666$$$666666$$$6666666666666666666",
"66666666666666666666666666666666666666666666666666",
"66666666666666666666666666666666666666666666666666",
"66666666666666666666666666666666666666666666666666"
};
