/* XPM */
static char *result[] = {
/* columns rows colors chars-per-pixel */
"50 50 82 1 ",
"  c #252533",
". c #242434",
"X c #252534",
"o c #262737",
"O c #272837",
"+ c #282938",
"@ c #342E37",
"# c #36303A",
"$ c #31313E",
"% c #3D3843",
"& c #403D46",
"* c #413E47",
"= c #413E4B",
"- c #43404D",
"; c #444150",
": c #444352",
"> c #444353",
", c #484452",
"< c #4B4B51",
"1 c #4B4B52",
"2 c #4B4C53",
"3 c #505055",
"4 c #C7BAA2",
"5 c #C8BCA3",
"6 c #CCC3A7",
"7 c #CDC4A9",
"8 c #CEC5A8",
"9 c #CEC5AA",
"0 c #CFC6AA",
"q c #CFC7AB",
"w c #D0C7AB",
"e c #D0C8AD",
"r c #D1C8AF",
"t c #D2CAAE",
"y c #D2CAB0",
"u c #D3CBB0",
"i c #D3CBB1",
"p c #D4CCB1",
"a c #D5CCB8",
"s c #DDD3B4",
"d c #DED5B7",
"f c #DFD6B6",
"g c #E0D7BA",
"h c #E1D8BA",
"j c #E3DABC",
"k c #DBD3C1",
"l c #E0DDC6",
"z c #E1E2C0",
"x c #E2E3C1",
"c c #E3E4C3",
"v c #E5E6C6",
"b c #E5E7C6",
"n c #E5E6C7",
"m c #EAE6C3",
"M c #E6E8C7",
"N c #E6E4CF",
"B c #E7E9C9",
"V c #E8EACA",
"C c #ECE9C8",
"Z c #E9ECCC",
"A c #F2EDD6",
"S c #F9F5D1",
"D c #FBF8D3",
"F c #FCF9D4",
"G c #FDF9D4",
"H c #F4F0D9",
"J c #F2F3E4",
"K c #F3F4E6",
"L c #F5F6E9",
"P c #F6F7EA",
"I c #F6F8EA",
"U c #F7F8EC",
"Y c #F7F9EC",
"T c #F9FBEF",
"R c #FAFCF0",
"E c #FFFFF4",
"W c #FFFFF5",
"Q c #FFFFF6",
"! c #FCFDF9",
"~ c #FDFFFA",
"^ c #FFFFFB",
"/ c #FFFFFC",
/* pixels */
"$$$$$X==QKKKKKKKKKKKKKPaa~~JKKKKKKKKKKKLLA**o$$$$$",
"$$$$$X==QKKKKKKKKKKKKKPaa~~JKKKKKKKKKKKLLA**o$$$$$",
"$$$XX,EExcccccccccccccb88IIzcccccccccccccMDD%OO$$$",
"$$X,,EccnnnnnnnnnnnnnnB00YYcnnnnnnnnnnnnnnBBF%%O$$",
"$$X,,EccnnnnnnnnnnnnnnB00YYcnnnnnnnnnnnnnnBBF%%O$$",
"XX,EEcnnnnnnnnnnnnnnnnB00YYcnnnnnnnnnnnnnnnnBFF%++",
"==EccnnnnnnnnnnnnnnnnnB00YYcnnnnnnnnnnnnnnnnnBBG##",
"==EccnnnnnnnnnnnnnnnnnB00YYcnnnnnnnnnnnnnnnnnBBG##",
"QQxnnnnnnnnnnnnnnnnnnnB00YYcnnnnnnnnnnnnnnnnnnnVjj",
"KKcnnnnnnnnnnnnnnnnnnnB00YYcnnnnnnnnnnnnnnnnnnnBuu",
"KKcnnnnnnnnnnnnnnnnnnnB00YYcnnnnnnnnnnnnnnnnnnnBuu",
"KKcnnnnnnnnnnnnnnnnnnnB00YYcnnnnnnnnnnnnnnnnnnnBuu",
"KKcnnnnnnnnnnnnnnnnnnnB00YYcnnnnnnnnnnnnnnnnnnnBuu",
"KKcnnnnnnnnnnnnnnnnnnnB00YYcnnnnnnnnnnnnnnnnnnnBuu",
"KKcnnnnnnnnnnnnnnnnnnnB00YYcnnnnnnnnnnnnnnnnnnnBuu",
"KKcnnnnnnnnnnnnnnnnnnnB00YYcnnnnnnnnnnnnnnnnnnnBuu",
"KKcnnnnnnnnnnnnnnnnnnnVss^^xnnnnnnnnnnnnnnnnnnnBuu",
"KKcnnnnnnnnnnnnnnnnnBBS<<>>EccnnnnnnnnnnnnnnnnnBuu",
"KKcnnnnnnnnnnnnnnnnnBBS<<>>EccnnnnnnnnnnnnnnnnnBuu",
"KKcnnnnnnnnnnnnnnnnBSS3..  ,EEcnnnnnnnnnnnnnnnnBuu",
"KKcnnnnnnnnnnnnnnBBS33.$$$$X,,EccnnnnnnnnnnnnnnBuu",
"KKcnnnnnnnnnnnnnnBBS33.$$$$X,,EccnnnnnnnnnnnnnnBuu",
"LLbBBBBBBBBBBBBBVSS3..$$$$$$XX,EEvBBBBBBBBBBBBBZpp",
"ll69999999999999d22.$$$$$$$$$$X;;m7799999999999q55",
"ll69999999999999d22.$$$$$$$$$$X;;m7799999999999q55",
"!!PUUUUUUUUUUUTTH&&o$$$$$$$$$$X==^UUUUUUUUUUUUURkk",
"!!PUUUUUUUUUUUTTH&&o$$$$$$$$$$X==^UUUUUUUUUUUUURkk",
"JJzcccccccccccccMDD%OO$$$$$$XX,EExcccccccccccccbtt",
"KKcnnnnnnnnnnnnnnBBF%%O$$$$X,,EccnnnnnnnnnnnnnnBuu",
"KKcnnnnnnnnnnnnnnBBF%%O$$$$X,,EccnnnnnnnnnnnnnnBuu",
"KKcnnnnnnnnnnnnnnnnBFF%++XX,EEcnnnnnnnnnnnnnnnnBuu",
"KKcnnnnnnnnnnnnnnnnnBBG@@--EccnnnnnnnnnnnnnnnnnBuu",
"KKcnnnnnnnnnnnnnnnnnBBG@@--EccnnnnnnnnnnnnnnnnnBuu",
"KKcnnnnnnnnnnnnnnnnnnnVff//xnnnnnnnnnnnnnnnnnnnBuu",
"KKcnnnnnnnnnnnnnnnnnnnB00YYcnnnnnnnnnnnnnnnnnnnBuu",
"KKcnnnnnnnnnnnnnnnnnnnB00YYcnnnnnnnnnnnnnnnnnnnBuu",
"KKcnnnnnnnnnnnnnnnnnnnB00YYcnnnnnnnnnnnnnnnnnnnBuu",
"KKcnnnnnnnnnnnnnnnnnnnB00YYcnnnnnnnnnnnnnnnnnnnBuu",
"KKcnnnnnnnnnnnnnnnnnnnB00YYcnnnnnnnnnnnnnnnnnnnBuu",
"KKcnnnnnnnnnnnnnnnnnnnB00YYcnnnnnnnnnnnnnnnnnnnBuu",
"KKcnnnnnnnnnnnnnnnnnnnB00YYcnnnnnnnnnnnnnnnnnnnBuu",
"WWxnnnnnnnnnnnnnnnnnnnB00YYcnnnnnnnnnnnnnnnnnnnVhh",
"::EccnnnnnnnnnnnnnnnnnB00YYcnnnnnnnnnnnnnnnnnBBS11",
"::EccnnnnnnnnnnnnnnnnnB00YYcnnnnnnnnnnnnnnnnnBBS11",
"  ,EEcnnnnnnnnnnnnnnnnB00YYcnnnnnnnnnnnnnnnnBSS3..",
"$$X,,EccnnnnnnnnnnnnnnB00YYcnnnnnnnnnnnnnnBBS33.$$",
"$$X,,EccnnnnnnnnnnnnnnB00YYcnnnnnnnnnnnnnnBBS33.$$",
"$$$XX,EEvBBBBBBBBBBBBBZwwTTbBBBBBBBBBBBBBVSS3..$$$",
"$$$$$X;;Crryyyyyyyyyyyi44NNeyyyyyyyyyyyyyg11.$$$$$",
"$$$$$X;;Crryyyyyyyyyyyi44NNeyyyyyyyyyyyyyg11.$$$$$"
};
