/* XPM */
static char *result[] = {
/* columns rows colors chars-per-pixel */
"50 50 33 1 ",
"  c #FFB300",
". c #FFB500",
"X c #FFB700",
"o c #FFB900",
"O c #FFBB00",
"+ c #FFBF00",
"@ c #FFC100",
"# c #FFC400",
"$ c #FFC600",
"% c #FFC800",
"& c #FFC900",
"* c #FFCA00",
"= c #FFCC00",
"- c #FFCE00",
"; c #FFD000",
": c #FFD200",
"> c #FFD400",
", c #FFD600",
"< c #FFDA00",
"1 c #FFDC00",
"2 c #FFDE00",
"3 c #FFE100",
"4 c #FFE200",
"5 c #FFE500",
"6 c #FFE800",
"7 c #FFE900",
"8 c #FFEB00",
"9 c #FFED00",
"0 c #FFEF00",
"q c #FFF100",
"w c #FFF300",
"e c #FFF500",
"r c None",
/* pixels */
"rrrrrrrrrrrrrrrrrrrrrrrrrrrrrrrrrrrrrrrrrrrrrrrrrr",
"rrrrrrrrrrrrrrrrrrrrrrrrrrrrrrrrrrrrrrrrrrrrrrrrrr",
"rrrrrrrrrrrrrrrrrrrrrrrrrrrrrrrrrrrrrrrrrrrrrrrrrr",
"rrrrrrrrrrrrrrrrrrrrrrrr    rrrrrrrrrrrrrrrrrrrrrr",
"rrrrrrrrrrrrrrrrrrrrrrrrr     rrrrrrrrrrrrrrrrrrrr",
"rrrrrrrrrrrrrrrrrrrrrrrrrr     rrrrrrrrrrrrrrrrrrr",
"rrrrrrrrrrrrrrrrrrrrrrrrrr      rrrrrrrrrrrrrrrrrr",
"rrrrrrrrrrrrrrrrrrrrrrrrrr       rrrrrrrrrrrrrrrrr",
"rrrrrrrrrrrrrrrrrrrrrrrrrr       rrrrrrrrrrrrrrrrr",
"rrrrrrrrrrrrrrrrrrrrrrrrrr        rrrrrrrrrrrrrrrr",
"rrrrrrrrrrrrrrrrrr rrrrrrr        rrrrrrrrrrrrrrrr",
"rrrrrrrrrrrrrrrrr  rrrrrr    X;   rrrrrrrrrrrrrrrr",
"rrrrrrrrrrrrrrrr   rrrrrr    =>   rrrrrrrrrrrrrrrr",
"rrrrrrrrrrrrrrr    rrrr     %>>   rrrrrrrrrrrrrrrr",
"rrrrrrrrrrrrrrr            %>>;  rrrrrrrrrrrrrrrrr",
"rrrrrrrrrrrrrr           X=>>>=  rrrrrrrrrrrrrrrrr",
"rrrrrrrrrrrrrr          @:>>>># rrr  rrrrrrrrrrrrr",
"rrrrrrrrrrrrr         o->>>>>>O rrr   rrrrrrrrrrrr",
"rrrrrrrrrrrrr        #>>>>>>>>. rrr   rrrrrrrrrrrr",
"rrrrrrrrrrrrr      .=>>>>>>>>>  rrr    rrrrrrrrrrr",
"rrrrrrrrrrrrr     o->>>>>>>>>:  rrr    rrrrrrrrrrr",
"rrrrrrrrrrrrr    X:>>>>>>>>>>>  rr      rrrrrrrrrr",
"rrrrrrrrrrrrr   .->>>>>>,279,>@         rrrrrrrrrr",
"rrrrrrrrrrrrr   $>>>>>,5weee,>>-==$.    rrrrrrrrrr",
"rrrrrrrrrrrrr  X>>>>>2weeeee7>>>>>>-.   rrrrrrrrrr",
"rrrrrrrrrrrrr  %>>>>7eeeeeeee814<>>>*    rrrrrrrrr",
"rrrrrrrrrrrrr  :>>>7eeerrreeeeeew2>>>X   rrrrrrrrr",
"rrrrrrrrrrrrr o>>>2eeerrrreeeeeeee1>>+   rrrrrrrrr",
"rrrrrrrrrrrrr O>>,weerrrrreeeeeeeew,>#  rrrrrrrrrr",
"rrrrrrrrrrrrr O>>4eerrrrrreeeeeeeee5>%  rrrrrrrrrr",
"rrrrrrrrrrrrrrO>>9errrrrrrreeerreeeq>%  rrrrrrrrrr",
"rrrrrrrrrrrrrr >>eerrrrrrrrrrrrrreee># rrrrrrrrrrr",
"rrrrrrrrrrrrrrr=>eerrrrrrrrrrrrrreee>@ rrrrrrrrrrr",
"rrrrrrrrrrrrrrr$>eerrrrrrrrrrrrrreee>o rrrrrrrrrrr",
"rrrrrrrrrrrrrrrr>0errrrrrrrrrrrrreee: rrrrrrrrrrrr",
"rrrrrrrrrrrrrrrrr6errrrrrrrrrrrrree9&rrrrrrrrrrrrr",
"rrrrrrrrrrrrrrrrrrerrrrrrrrrrrrrree3rrrrrrrrrrrrrr",
"rrrrrrrrrrrrrrrrrrrrrrrrrrrrrrrrreerrrrrrrrrrrrrrr",
"rrrrrrrrrrrrrrrrrrrrrrrrrrrrrrrrrrrrrrrrrrrrrrrrrr",
"rrrrrrrrrrrrrrrrrrrrrrrrrrrrrrrrrrrrrrrrrrrrrrrrrr",
"rrrrrrrrrrrrrrrrrrrrrrrrrrrrrrrrrrrrrrrrrrrrrrrrrr",
"rrrrrrrrrrrrrrrrrrrrrrrrrrrrrrrrrrrrrrrrrrrrrrrrrr",
"rrrrrrrrrrrrrrrrrrrrrrrrrrrrrrrrrrrrrrrrrrrrrrrrrr",
"rrrrrrrrrrrrrrrrrrrrrrrrrrrrrrrrrrrrrrrrrrrrrrrrrr",
"rrrrrrrrrrrrrrrrrrrrrrrrrrrrrrrrrrrrrrrrrrrrrrrrrr",
"rrrrrrrrrrrrrrrrrrrrrrrrrrrrrrrrrrrrrrrrrrrrrrrrrr",
"rrrrrrrrrrrrrrrrrrrrrrrrrrrrrrrrrrrrrrrrrrrrrrrrrr",
"rrrrrrrrrrrrrrrrrrrrrrrrrrrrrrrrrrrrrrrrrrrrrrrrrr",
"rrrrrrrrrrrrrrrrrrrrrrrrrrrrrrrrrrrrrrrrrrrrrrrrrr",
"rrrrrrrrrrrrrrrrrrrrrrrrrrrrrrrrrrrrrrrrrrrrrrrrrr"
};
