/* XPM */
static char *result[] = {
/* columns rows colors chars-per-pixel */
"50 50 33 1 ",
"  c #FFB300",
". c #FFB500",
"X c #FFB700",
"o c #FFB900",
"O c #FFBB00",
"+ c #FFBC00",
"@ c #FFBD00",
"# c #FFBF00",
"$ c #FFC100",
"% c #FFC400",
"& c #FFC600",
"* c #FFC800",
"= c #FFCA00",
"- c #FFCC00",
"; c #FFCE00",
": c #FFD000",
"> c #FFD200",
", c #FFD400",
"< c #FFD600",
"1 c #FFD800",
"2 c #FFDA00",
"3 c #FFDC00",
"4 c #FFDE00",
"5 c #FFE500",
"6 c #FFE700",
"7 c #FFE900",
"8 c #FFEB00",
"9 c #FFED00",
"0 c #FFEF00",
"q c #FFF100",
"w c #FFF300",
"e c #FFF500",
"r c None",
/* pixels */
"rrrrrrrrrrrrrrrrrrrrrrrrrrrrrrrrrrrrrrrrrrrrrrrrrr",
"rrrrrrrrrrrrrrrrrrrrrrrrrrrrrrrrrrrrrrrrrrrrrrrrrr",
"rrrrrrrrrrrrrrrrrrrrrrrrrrrrrrrrrrrrrrrrrrrrrrrrrr",
"rrrrrrrrrrrrrrrrrrrrrrrrrrrrrrrrrrrrrrrrrrrrrrrrrr",
"rrrrrrrrrrrrrrrrrrrrrrrrrrrrrrrrrrrrrrrrrrrrrrrrrr",
"rrrrrrrrrrrrrrrrrrrrrrrrrrrrrrrrrrrrrrrrrrrrrrrrrr",
"rrrrrrrrrrrrrrrrrrrrrrrrrrrrrrrrrrrrrrrrrrrrrrrrrr",
"rrrrrrrrrrrrrrrrrrrrrrrrrrrrrrrrrrrrrrrrrrrrrrrrrr",
"rrrrrrrrrrrrrrrrrrrrrrrrrrrrrrrrrrrrrrrrrrrrrrrrrr",
"rrrrrrrrrrrrrrrrrrrrrrrrrrrrrrrrrrrrrrrrrrrrrrrrrr",
"rrrrrrrrrrrrrrrrrrrrrrrrrrrrrrrrrrrrrrrrrrrrrrrrrr",
"rrrrrrrrrrrrrrrrrrrrrrrrrrrrrrrrrrrrrrrrrrrrrrrrrr",
"rrrrrrrrrrrrrrr rrrrrrrrrrrrrrrrrrrrrrrrrrrrrrrrrr",
"rrrrrrrrrrrrrr  rrrrrrrrrrrrrrrrrrrrrrrrrrrrrrrrrr",
"rrrrrrrrrrrrr   rrrrrrrrrrrrrrrrrrrrrrrrrrrrrrrrrr",
"rrrrrrrrrrrrr   rrrrrrrrrrrrrrrrrrrrrrrrrrrrrrrrrr",
"rrrrrrrrrrrr    rrrrrrr,rrrrrrrrrrrrrrrrrrrrrrrrrr",
"rrrrrrrrrrrr     rrrrrr,,rrrrrrrrrrrrrrrrrrrrrrrrr",
"rrrrrrrrrrrr     rrrrrr,,,,rrrrrrrrrrrrrrrrrrrrrrr",
"rrrrrrrr rrr      rrrrr<,,,,,,,,,,,rrrrrrrrrrrrrrr",
"rrrrrrrr rrr  .    rrrr81,,,,,,,,,,,,,rrrrrrrrrrrr",
"rrrrrrr   rrr $$    rrrre975543<,,,,,,,rrrrrrrrrrr",
"rrrrrrr   rrr #,#     rrreeeeeeew952,,,,rrrrrrrrrr",
"rrrrrrr    rr .,,$      rrrreeeeeeeeq3,,rrrrrrrrrr",
"rrrrrrr    rrr *,,:#      rrrrreeeeeee6,,rrrrrrrrr",
"rrrrrrr      r X,,,,>=#X    rrrrrreeeee5,rrrrrrrrr",
"rrrrrrr         -,,,,,,,;&o    rrrrreeee2rrrrrrrrr",
"rrrrrrr  o#.    %,,,,,,,,,,:&X   rrrrree7rrrrrrrrr",
"rrrrrrrr .,,-%$@-,,,,,,,,,,,,,-@    rrre0rrrrrrrrr",
"rrrrrrrr  *,,,,,,,,,,,,,,,,,,,,,:@   rrrerrrrrrrrr",
"rrrrrrrrr .;,,,,,,,,,,,,,r,,,,,,,,-X  rrrrrrrrrrrr",
"rrrrrrrrrr .;,,,,,rr,,,,,rr,,,,,,,,>@  rrrrrrrrrrr",
"rrrrrrrrrrr .*,,,,rrr,,,rrrr,,,,,,,,,#  rrrrrrrrrr",
"rrrrrrrrrrrr  #,,,rrrrrrrrrrr,,,,,,,,,O rrrrrrrrrr",
"rrrrrrrrrrrrrr +,,,rrrrrrrrrr,,,,rr,,,:.rrrrrrrrrr",
"rrrrrrrrrrrrrrrr,,,,rrrrrrrrrr,,,rrr,,,$rrrrrrrrrr",
"rrrrrrrrrrrrrrrrrr,,,rrrrrrrrrr,rrrrr,,;rrrrrrrrrr",
"rrrrrrrrrrrrrrrrrrr,,rrrrrrrrrrrrrrrrr,,rrrrrrrrrr",
"rrrrrrrrrrrrrrrrrrrr,rrrrrrrrrrrrrrrrrr,rrrrrrrrrr",
"rrrrrrrrrrrrrrrrrrrrrrrrrrrrrrrrrrrrrrr,rrrrrrrrrr",
"rrrrrrrrrrrrrrrrrrrrrrrrrrrrrrrrrrrrrrrrrrrrrrrrrr",
"rrrrrrrrrrrrrrrrrrrrrrrrrrrrrrrrrrrrrrrrrrrrrrrrrr",
"rrrrrrrrrrrrrrrrrrrrrrrrrrrrrrrrrrrrrrrrrrrrrrrrrr",
"rrrrrrrrrrrrrrrrrrrrrrrrrrrrrrrrrrrrrrrrrrrrrrrrrr",
"rrrrrrrrrrrrrrrrrrrrrrrrrrrrrrrrrrrrrrrrrrrrrrrrrr",
"rrrrrrrrrrrrrrrrrrrrrrrrrrrrrrrrrrrrrrrrrrrrrrrrrr",
"rrrrrrrrrrrrrrrrrrrrrrrrrrrrrrrrrrrrrrrrrrrrrrrrrr",
"rrrrrrrrrrrrrrrrrrrrrrrrrrrrrrrrrrrrrrrrrrrrrrrrrr",
"rrrrrrrrrrrrrrrrrrrrrrrrrrrrrrrrrrrrrrrrrrrrrrrrrr",
"rrrrrrrrrrrrrrrrrrrrrrrrrrrrrrrrrrrrrrrrrrrrrrrrrr"
};
