/* XPM */
static char *result[] = {
/* columns rows colors chars-per-pixel */
"50 50 23 1 ",
"  c #131313",
". c #24112F",
"X c gray18",
"o c #373735",
"O c #3C393D",
"+ c #464646",
"@ c #494342",
"# c #555553",
"$ c #585858",
"% c #747474",
"& c #96442C",
"* c #B98768",
"= c #F2AF7D",
"- c #A7A7A9",
"; c #E1BAAA",
": c #ECC7B5",
"> c #AEAEC5",
", c #C3C3C3",
"< c #DCC7CC",
"1 c #FDD8C6",
"2 c gray88",
"3 c #F8F8F8",
"4 c white",
/* pixels */
",,,,,,,,,,,,,,,,,,,,,,,,,,,,,,,,,,,,,,,,,,,,,,,,,,",
",,,,,,,,,,,,,,,,,,,,,,,,,,,,,,,,,,,,,,,,,,,,,,,,,,",
",,,,,,,,,,,,,,,,,,,,,, XXXXX,,,,,,,,,,,,,,,,,,,,,,",
",,,,,,,,,,,,,,,,,   XX $$$$$XX,,,,,,,,,,,,,,,,,,,,",
",,,,,,,,,,,,,,,,,   XX $$$$$XX,,,,,,,,,,,,,,,,,,,,",
",,,,,,,,,,,,,,,,,  $$$$XX$$$$$X  ,,,,,,,,,,,,,,,,,",
",,,,,,,,,,,,,,,,   +$$$$$++$$$$XXX,,,,,,,,,,,,,,,,",
",,,,,,,,,,,,,,,,   +$$$$$++$$$$XXX,,,,,,,,,,,,,,,,",
",,,,,,,,,,,,,,      ++$$$$$$$$%++ ,,,,,,,,,,,,,,,,",
",,,,,,,,,,,,,,  X$$$$$$$$$$$%%%$$X  ,,,,,,,,,,,,,,",
",,,,,,,,,,,,,,  X$$$$$$$$$$$%%%$$X  ,,,,,,,,,,,,,,",
",,,,,,,,,,,,, XX$$$%$$$%%%%+$$$$$$  ,,,,,,,,,,,,,,",
",,,,,,,,,,,,, XX$$$%$$$%%%%+$$$$$$  ,,,,,,,,,,,,,,",
",,,,,,,,,,,,,X+++++$$$+$$$$+++$$$$  ,,,,,,,,,,,,,,",
",,,,,,,,,,,,,X+++$$$$$+++++++++$$+..,,,,,,,,,,,,,,",
",,,,,,,,,,,,,X+++$$$$$+++++++++$$+..,,,,,,,,,,,,,,",
",,,,,,,,,,,,,   XXX+++++++++XX++++..,,,,,,,,,,,,,,",
",,,,,,,,,,,,,,  XXX++++++++111X+++..,,,,,,,,,,,,,,",
",,,,,,,,,,,,,,  XXX++++++++111X+++..,,,,,,,,,,,,,,",
",,,,,,,,,,,,,,  X++++++++XX1111111..,,,,,,,,,,,,,,",
",,,,,,,,,,,,,,   +++XX***XX***111.,,,,,,,,,,,,,,,,",
",,,,,,,,,,,,,,   +++XX***XX***111.,,,,,,,,,,,,,,,,",
",,,,,,,,,,,,,,,, XXX**1==XX<..111.,,,,,,,,,,,,,,,,",
",,,,,,,,,,,,,,,,.XXX**1====3..111.,,,,,,,,,,,,,,,,",
",,,,,,,,,,,,,,,,.XXX**1====3..111.,,,,,,,,,,,,,,,,",
",,,,,,,,,,,,,,,,,..XXX***==111111.,,,,,,,,,,,,,,,,",
",,,,,,,,,,,,,,,,,..XXX***==111111.,,,,,,,,,,,,,,,,",
",,,,,,,,,,,,,,,,,.....X**===11=..,,,,,,,,,,,,,,,,,",
",,,,,,,,,,,,,,,,,,,,...****....,,,,,,,,,,,,,,,,,,,",
",,,,,,,,,,,,,,,,,,,,...****....,,,,,,,,,,,,,,,,,,,",
",,,,,,,,,,,,,,,,,,,,..24422=..,,,,,,,,,,,,,,,,,,,,",
",,,,,,,,,,,,,,,,,,,,..-44--4..,,,,,,,,,,,,,,,,,,,,",
",,,,,,,,,,,,,,,,,,,,..-44--4..,,,,,,,,,,,,,,,,,,,,",
",,,,,,,,,,,,,,,,,,,,..-22--2..,,,,,,,,,,,,,,,,,,,,",
",,,,,,,,,,,,,,,,,,,.oo.==;;...,,,,,,,,,,,,,,,,,,,,",
",,,,,,,,,,,,,,,,,,,.oo.==;;...,,,,,,,,,,,,,,,,,,,,",
",,,,,,,,,,,,,,,,,,,.oo.::==...,,,,,,,,,,,,,,,,,,,,",
",,,,,,,,,,,,,,,,,,,.oo.::==...,,,,,,,,,,,,,,,,,,,,",
",,,,,,,,,,,,,,,,,,,.oo#....O..,,,,,,,,,,,,,,,,,,,,",
",,,,,,,,,,,,,,,,,,,,..###@@.,,,,,,,,,,,,,,,,,,,,,,",
",,,,,,,,,,,,,,,,,,,,..###@@.,,,,,,,,,,,,,,,,,,,,,,",
",,,,,,,,,,,,,,,,,,,,..ooo..,,,,,,,,,,,,,,,,,,,,,,,",
",,,,,,,,,,,,,,,,,,,,,,.&&&&.,,,,,,,,,,,,,,,,,,,,,,",
",,,,,,,,,,,,,,,,,,,,,,.&&&&.,,,,,,,,,,,,,,,,,,,,,,",
",,,,,,,,,,,,,,,,,,,,,,.>>>>.,,,,,,,,,,,,,,,,,,,,,,",
",,,,,,,,,,,,,,,,,,,,,,,.....,,,,,,,,,,,,,,,,,,,,,,",
",,,,,,,,,,,,,,,,,,,,,,,.....,,,,,,,,,,,,,,,,,,,,,,",
",,,,,,,,,,,,,,,,,,,,,,,,,,,,,,,,,,,,,,,,,,,,,,,,,,",
",,,,,,,,,,,,,,,,,,,,,,,,,,,,,,,,,,,,,,,,,,,,,,,,,,",
",,,,,,,,,,,,,,,,,,,,,,,,,,,,,,,,,,,,,,,,,,,,,,,,,,"
};
