/* XPM */
static char *result[] = {
/* columns rows colors chars-per-pixel */
"50 50 24 1 ",
"  c #000300",
". c #000700",
"X c #040005",
"o c #131313",
"O c #24112F",
"+ c gray18",
"@ c #373735",
"# c #434343",
"$ c #444444",
"% c #464646",
"& c #555553",
"* c #555555",
"= c #565656",
"- c #585858",
"; c #747474",
": c #96442C",
"> c #B98768",
", c #F2AF7D",
"< c #A7A7A9",
"1 c #E1BAAA",
"2 c #AEAEC5",
"3 c #C3C3C3",
"4 c gray88",
"5 c white",
/* pixels */
"33333333333333333333333333333333333333333333333333",
"33333333333333333333333333333333333333333333333333",
"3333333333333333333333+++++33333333333333333333333",
"3333333333333333+++++++----+oo33333333333333333333",
"3333333333333333+++++++----+oo33333333333333333333",
"3333333333333333+%%---%++---+++3333333333333333333",
"3333333333333333o++%---%%%%*--%++o3333333333333333",
"3333333333333333o++%---%%%%*--%++o3333333333333333",
"33333333333333oo++++%%---==%---+++oo33333333333333",
"33333333333333++%;;-----------;--%++33333333333333",
"33333333333333++%;;-----------;--%++33333333333333",
"3333333333333+++------;;;--%;;;---++33333333333333",
"3333333333333+++------;;;--%;;;---++33333333333333",
"3333333333333+------%%-----+$$----++33333333333333",
"3333333333333o%%---$++---%%#++%---oo33333333333333",
"3333333333333o%%---$++---%%#++%---oo33333333333333",
"3333333333333ooo%%%+##%%%%%%%%%%%%oo33333333333333",
"33333333333333oo%%%%%%%%%++%%%%%%%oo33333333333333",
"33333333333333oo%%%%%%%%%++%%%%%%%oo33333333333333",
"33333333333333oo+%%%%%%%%%%%%%%%%+oo33333333333333",
"33333333333333oo,++%%%%%%%%%%%%++,oo33333333333333",
"33333333333333oo,++%%%%%%%%%%%%++,oo33333333333333",
"33333333333333oo,+++%%%%%%%%%%+++,oo33333333333333",
"3333333333333333.XX+++%%%%%%+++XX 3333333333333333",
"3333333333333333.XX+++%%%%%%+++XX 3333333333333333",
"33333333333333333  ++++++++++++XX33333333333333333",
"33333333333333333  ++++++++++++XX33333333333333333",
"3333333333333333333XXX>,,,,>XXX3333333333333333333",
"33333333333333333OO455444444554OO33333333333333333",
"33333333333333333OO455444444554OO33333333333333333",
"3333333333333333O4445555555555444O3333333333333333",
"3333333333333333O55<5555555555<55O3333333333333333",
"3333333333333333O55<5555555555<55O3333333333333333",
"33333333333333OO455O5555555555O554OO33333333333333",
"3333333333333O,,1OOO4455555544OOO1,,OO333333333333",
"3333333333333O,,1OOO4455555544OOO1,,OO333333333333",
"3333333333333O11,OOO@@555555@@OOO,11OO333333333333",
"3333333333333O11,OOO@@555555@@OOO,11OO333333333333",
"33333333333333OOO33O&&&OOOO&&&O33OOO33333333333333",
"3333333333333333333O@@O3333O@@O3333333333333333333",
"3333333333333333333O@@O3333O@@O3333333333333333333",
"3333333333333333333O@@O3333O@@O3333333333333333333",
"33333333333333333OO:22O3333O22:OO33333333333333333",
"33333333333333333OO:22O3333O22:OO33333333333333333",
"33333333333333333OO222O3333O222OO33333333333333333",
"3333333333333333333OOO333333OOO3333333333333333333",
"3333333333333333333OOO333333OOO3333333333333333333",
"33333333333333333333333333333333333333333333333333",
"33333333333333333333333333333333333333333333333333",
"33333333333333333333333333333333333333333333333333"
};
