/* XPM */
static char *_1a7c139d3c64785f2b96d02f2c5f7adh1cSjOhwIZWMn4rB[] = {
/* columns rows colors chars-per-pixel */
"32 32 28 1 ",
"  c #000300",
". c #040000",
"X c #000700",
"o c #040005",
"O c #0B0100",
"+ c #000903",
"@ c #000209",
"# c #131313",
"$ c #24112F",
"% c gray18",
"& c #373735",
"* c #464646",
"= c #555553",
"- c #585858",
"; c #747474",
": c #96442C",
"> c #22B14C",
", c #B98768",
"< c #F2AF7D",
"1 c #A7A7A9",
"2 c #D3BEBB",
"3 c #AEAEC5",
"4 c #DCC7CC",
"5 c #FDD8C6",
"6 c gray88",
"7 c #F9EDFF",
"8 c #F8F4F1",
"9 c white",
/* pixels */
">>>>>>>>>>>>>>>>>>>>>>>>>>>>>>>>",
">>>>>>>>>>>>>>>%%%>>>>>>>>>>>>>>",
">>>>>>>>>>>>>#%--%%%%%>>>>>>>>>>",
">>>>>>>>>>>>%%--%*--*%>>>>>>>>>>",
">>>>>>>>>>#%*--**--*%#>>>>>>>>>>",
">>>>>>>>>#%%--*---*%%%#>>>>>>>>>",
">>>>>>>>>%*-;-------;*%>>>>>>>>>",
">>>>>>>>>%--;;*-;;----%%>>>>>>>>",
">>>>>>>>>%---**---*----%>>>>>>>>",
">>>>>>>>>#--****--**--*#>>>>>>>>",
">>>>>>>>>#***%****%***##>>>>>>>>",
">>>>>>>>>#**55%**%55**#>>>>>>>>>",
">>>>>>>>>#*%55555555%*#>>>>>>>>>",
">>>>>>>>>#<%<,,55,,<%<#>>>>>>>>>",
">>>>>>>>>#<%<4.55O2<%<#>>>>>>>>>",
">>>>>>>>>> o<7+55@8<oX>>>>>>>>>>",
">>>>>>>>>>>o,555555, >>>>>>>>>>>",
">>>>>>>>>>>>oo,<<,oo>>>>>>>>>>>>",
">>>>>>>>>>>$69555596$>>>>>>>>>>>",
">>>>>>>>>>$6699999966$>>>>>>>>>>",
">>>>>>>>>>$9166666619$>>>>>>>>>>",
">>>>>>>>>$69$699996$96$>>>>>>>>>",
">>>>>>>>$<5$$699996$$5<$>>>>>>>>",
">>>>>>>>$5<$$==&&==$$<5$>>>>>>>>",
">>>>>>>>>$$>$==$$==$>$$>>>>>>>>>",
">>>>>>>>>>>>$&$>>$&$>>>>>>>>>>>>",
">>>>>>>>>>>>$&$>>$&$>>>>>>>>>>>>",
">>>>>>>>>>>$::$>>$::$>>>>>>>>>>>",
">>>>>>>>>>>$33$>>$33$>>>>>>>>>>>",
">>>>>>>>>>>>$$>>>>$$>>>>>>>>>>>>",
">>>>>>>>>>>>>>>>>>>>>>>>>>>>>>>>",
">>>>>>>>>>>>>>>>>>>>>>>>>>>>>>>>"
};
