/* XPM */
static char *_05d76d5088a42dbf8060d07fff196706AiXyK9Xj1skcte2[] = {
/* columns rows colors chars-per-pixel */
"32 32 64 1 ",
"  c #252533",
". c #242434",
"X c #252534",
"o c #272837",
"O c #282938",
"+ c #342E37",
"@ c #36303A",
"# c #31313E",
"$ c #3D3843",
"% c #403D46",
"& c #413E4B",
"* c #444353",
"= c #484452",
"- c #4B4B52",
"; c #4B4C53",
": c #505055",
"> c #C7BAA2",
", c #C8BCA3",
"< c #CCC3A7",
"1 c #CDC4A9",
"2 c #CEC5AA",
"3 c #CFC7AB",
"4 c #D0C7AB",
"5 c #D0C8AD",
"6 c #D1C8AF",
"7 c #D2CAAE",
"8 c #D2CAB0",
"9 c #D3CBB0",
"0 c #D3CBB1",
"q c #D5CCB8",
"w c #DDD3B4",
"e c #DED5B7",
"r c #E0D7BA",
"t c #E1D8BA",
"y c #E3DABC",
"u c #DBD3C1",
"i c #E1E2C0",
"p c #E2E3C1",
"a c #E3E4C3",
"s c #E5E7C6",
"d c #E5E6C7",
"f c #EAE6C3",
"g c #E6E8C7",
"h c #E6E4CF",
"j c #E7E9C9",
"k c #E8EACA",
"l c #ECE9C8",
"z c #E9ECCC",
"x c #F2EDD6",
"c c #F9F5D1",
"v c #FBF8D3",
"b c #FDF9D4",
"n c #F4F0D9",
"m c #F2F3E4",
"M c #F3F4E6",
"N c #F6F7EA",
"B c #F6F8EA",
"V c #F7F8EC",
"C c #F7F9EC",
"Z c #F9FBEF",
"A c #FAFCF0",
"S c #FFFFF4",
"D c #FCFDF9",
"F c #FFFFFC",
/* pixels */
"###X&SMMmmMmMMBqDMMMMMMMMBx$O###",
"##X=Spaadpdppdd1Biaaaaaaaajv$O##",
"#X=Sadddddddddj3Baaddddddddjv$O#",
"X=Saddddddddddj3Zaddddddddddkv$O",
"&Sadddddddddddd3Badddddddddddjv@",
"Spddddddddddddk3Caddddddddddddky",
"Maddddddddddddj3Cadddddddddddgk0",
"Maddddddddddddd3Caddddddddddddj0",
"Maddddddddddddj3Baddddddddddddj0",
"Maddddddddddddj3Caddddddddddddj0",
"MaddddddddddddjwFpddddddddddjaj7",
"Madddddddddddjc-*Saddddddddddgj0",
"Maddddddddddjc:.X=Spddddddddddj7",
"Madaddggdddkc:.O#X=Sadddddddddj0",
"Njjjjgggghkc:.O$##X=Sdjdjjjjjjk0",
"u333333122e;.$$O###X*f<3<3<3355,",
"DBCBBNCCBZn$.$O$###X&FCCCVVVVVAu",
"Miididaaasjv$.$O##X=Spaaapaaaag6",
"Mdddddddssssx$o$#X=Sadddgdddddg6",
"Midddddddsssjv$oX=Saddddggdddgk0",
"Nadddddddddddkv@&Sadddddddddddh7",
"middddddddddddkeFpddddddddddddk7",
"Maddddddddddddd3Caddddddddddddj0",
"Maddddddddddddg3Caddddddddddddj0",
"Middddddddddddk3Caddddddddddddj7",
"Mdddddddddddddd3Cpddddddddddddk0",
"Diddddddddddddg3Caddddddddddddkt",
"*Sadddddddddddk3Cadddddddddddjc-",
" =Saddddddddddg3Caddddddddggjc: ",
"#.=Saddddddddgj3Caddddddddgjc:X#",
"##.=Sdjjgkkggkk3Zdjjjjhgggzc:.##",
"###.=k660606000>h770070060e-.###"
};
