/* XPM */
static char *b54c2719ee854209c4b12aa74d94b54dcBK3WTL6JU5HlkOL[] = {
/* columns rows colors chars-per-pixel */
"32 32 20 1 ",
"  c #000300",
". c #000700",
"X c #040005",
"o c #131313",
"O c #24112F",
"+ c gray18",
"@ c #373735",
"# c #464646",
"$ c #555553",
"% c #585858",
"& c #747474",
"* c #96442C",
"= c #22B14C",
"- c #B98768",
"; c #F2AF7D",
": c #A7A7A9",
"> c #AEAEC5",
", c #FDD8C6",
"< c gray88",
"1 c white",
/* pixels */
"================================",
"==============+++===============",
"==========+++++%%+o=============",
"==========+#%%#+%%++============",
"==========o+#%%##%%#+o==========",
"=========o+++#%%%#%%++o=========",
"=========+#&%%%%%%%&%#+=========",
"========++%%%%&&%#&&%%+=========",
"========+%%%%#%%%+#%%%+=========",
"========o#%%#+%%##+#%%o=========",
"========oo##+#########o=========",
"=========o######+#####o=========",
"=========o+##########+o=========",
"=========o;+########+;o=========",
"=========o;++######++;o=========",
"==========.X++####++X ==========",
"=========== ++++++++X===========",
"============XX-;;-XX============",
"===========O<1<<<<1<O===========",
"==========O<<111111<<O==========",
"==========O1:111111:1O==========",
"=========O<1O111111O1<O=========",
"========O;,OO<1111<OO,;O========",
"========O,;OO@1111@OO;,O========",
"=========OO=O$$OO$$O=OO=========",
"============O@O==O@O============",
"============O@O==O@O============",
"===========O*>O==O>*O===========",
"===========O>>O==O>>O===========",
"============OO====OO============",
"================================",
"================================"
};
