/* XPM */
static char *result[] = {
/* columns rows colors chars-per-pixel */
"50 50 14 1 ",
"  c #1F1A17",
". c #6C2A0A",
"X c #102A42",
"o c #193863",
"O c #A75325",
"+ c #BD792E",
"@ c #C17D2F",
"# c #E69434",
"$ c #DEB954",
"% c #EAC156",
"& c #FCDA64",
"* c #24518E",
"= c #2D66B3",
"- c #C3C3C3",
/* pixels */
"--------------------------------------------------",
"--------------------------------------------------",
"--------------------------------------------------",
"--------------------------------------------------",
"--------------------------------------------------",
"--------------------------------------------------",
"------                                      ------",
"------                                      ------",
"------  ...  XoooooXooooooooooXoooooXX ...  ------",
"------  ...  ooooooXooooooooooXooooooo ...  ------",
"------  ...  ooooooXooooooooooXooooooo ...  ------",
"------  .OO  ******o**********o******* OO.  ------",
"------  .OO  ******o**********o******* OO.  ------",
"------  OOO  ******o**********o******* OOO  ------",
"------  OOO  ******o**********o******* OOO  ------",
"------  OOO  ******o**********o******* OOO  ------",
"------  OOO  ======*==========*======= OOO  ------",
"------  O##  ======*==========*======= ##O  ------",
"------  O##  ======*==========*======= ##O  ------",
"------  ###  ======*==========*======= ###  ------",
"------  ###  ******o**********o******* ###  ------",
"------  ###  ******o**********o******* ###  ------",
"------  ###  o*****o**********o*****oo ###  ------",
"------  #&&..                         .&&#  ------",
"------  #&&..                         .&&#  ------",
"------  #&&&&&&&&&&@  #$$$$#  @&&&&&&&&&&#  ------",
"------  #&&&&&&&&&&@  #$$$$#  @&&&&&&&&&&#  ------",
"------  O########OO ++%####%++ OO########O  ------",
"------              OO&    &OO              ------",
"------              OO&    &OO              ------",
"------  OOO  ooooooX  &    &  Xooooooo OOO  ------",
"------  ###  o***ooo  O&&&&O  ooo***oo ###  ------",
"------  ###  o***ooo  O&&&&O  ooo***oo ###  ------",
"------  ###  ****oo*oo OOOO oo*oo***** ###  ------",
"------  #OO  ****oo***o    o***oo***** OO#  ------",
"------  #OO  ****oo***o    o***oo***** OO#  ------",
"------  OOO  o***oo****oooo****oo***oo OOO  ------",
"------  OOO  o***oo****oooo****oo***oo OOO  ------",
"------  OOO                            OOO  ------",
"------  O..  .OOO################OOO.. ..O  ------",
"------  O..  .OOO################OOO.. ..O  ------",
"------  ...  ...OOOO##########OOOO.... ...  ------",
"------                                      ------",
"------                                      ------",
"--------------------------------------------------",
"--------------------------------------------------",
"--------------------------------------------------",
"--------------------------------------------------",
"--------------------------------------------------",
"--------------------------------------------------"
};
