/* XPM */
static char *_2c2b343d1694a75e0a9ec72dc91f5aaUvBjSdzm9MX5HSjO[] = {
/* columns rows colors chars-per-pixel */
"50 50 31 1 ",
"  c None",
". c #000300",
"X c #040000",
"o c #000700",
"O c #040005",
"+ c #0B0100",
"@ c #000903",
"# c #000209",
"$ c #131313",
"% c #24112F",
"& c gray18",
"* c #373735",
"= c #464646",
"- c #555553",
"; c #555555",
": c #565656",
"> c #585858",
", c #747474",
"< c #96442C",
"1 c #B98768",
"2 c #F2AF7D",
"3 c #A7A7A9",
"4 c #D3BEBB",
"5 c #E1BAAA",
"6 c #AEAEC5",
"7 c #DCC7CC",
"8 c #FDD8C6",
"9 c gray88",
"0 c #F9EDFF",
"q c #F8F4F1",
"w c white",
/* pixels */
"                                                  ",
"                                                  ",
"                       &&&&&                      ",
"                    $$&>>>>&&&&&&&                ",
"                    $$&>>>>&&&&&&&                ",
"                   &&&>>>&&=>>>==&                ",
"                $&&=>>;====>>>=&&$                ",
"                $&&=>>;====>>>=&&$                ",
"              $$&&&>>>=;;>>>==&&&&$$              ",
"              &&=>>,>>>>>>>>>>>,,=&&              ",
"              &&=>>,>>>>>>>>>>>,,=&&              ",
"              &&>>>,,,=>>,,,>>>>>>&&&&            ",
"              &&>>>,,,=>>,,,>>>>>>&&&&            ",
"              &&>>>>===>>>>>==>>>>>>&&            ",
"              $$>>>======>>>===>>>==$$            ",
"              $$>>>======>>>===>>>==$$            ",
"              $$====&&======&&====$$$$            ",
"              $$===888&====&888===$$              ",
"              $$===888&====&888===$$              ",
"              $$=&&888888888888&&=$$              ",
"              $$2&&211188881112&&2$$              ",
"              $$2&&211188881112&&2$$              ",
"              $$2&&277X8888+442&&2$$              ",
"                .OO200@8888#qq2OX@                ",
"                .OO200@8888#qq2OO.                ",
"                 OO188888888881..                 ",
"                 OO188888888881..                 ",
"                   OOO122221OOO                   ",
"                 %%9ww888888ww9%%                 ",
"                 %%9ww888888ww9%%                 ",
"                %999wwwwwwwwww999%                ",
"                %ww399999999993ww%                ",
"                %ww399999999993ww%                ",
"              %%9ww%99wwwwww99%ww9%%              ",
"             %225%%%99wwwwww99%%%522%%            ",
"             %225%%%99wwwwww99%%%522%%            ",
"             %552%%%---****---%%%255%%            ",
"             %552%%%---****---%%%255%%            ",
"              %%%  %---%%%%---%  %%%              ",
"                   %**%    %**%                   ",
"                   %**%    %**%                   ",
"                   %**%    %**%                   ",
"                 %%<<<%    %<<<%%                 ",
"                 %%<<<%    %<<<%%                 ",
"                 %%666%    %666%%                 ",
"                   %%%      %%%                   ",
"                   %%%      %%%                   ",
"                                                  ",
"                                                  ",
"                                                  "
};
