/* XPM */
static char *result[] = {
/* columns rows colors chars-per-pixel */
"50 50 37 1 ",
"  c #FFB300",
". c #FFB500",
"X c #FFB700",
"o c #FFB900",
"O c #FFBB00",
"+ c #FFBC00",
"@ c #FFBD00",
"# c #FFBF00",
"$ c #FFC100",
"% c #FFC400",
"& c #FFC600",
"* c #FFC800",
"= c #FFCA00",
"- c #FFCC00",
"; c #FFCD00",
": c #FFCE00",
"> c #FFD000",
", c #FFD100",
"< c #FFD200",
"1 c #FFD400",
"2 c #FFD600",
"3 c #FFD800",
"4 c #FFDA00",
"5 c #FFDC00",
"6 c #FFE000",
"7 c #FFE200",
"8 c #FFE500",
"9 c #FFE600",
"0 c #FFE700",
"q c #FFE900",
"w c #FFEB00",
"e c #FFED00",
"r c #FFEF00",
"t c #FFF100",
"y c #FFF300",
"u c #FFF500",
"i c None",
/* pixels */
"iiiiiiiiiiiiiiiiiiiiiiiiiiiiiiiiiiiiiiiiiiiiiiiiii",
"iiiiiiiiiiiiiiiiiiiiiiiiiiiiiiiiiiiiiiiiiiiiiiiiii",
"iiiiiiiiiiiiiiiiiiiiiiiiiiiiiiiiiiiiiiiiiiiiiiiiii",
"iiiiiiiiiiiiiiiiiiiiiiiiiiiiiiiiiiiiiiiiiiiiiiiiii",
"iiiiiiiiiiiiiiiiiiiiiiiiiiiiiiiiiiiiiiiiiiiiiiiiii",
"iiiiiiiiiiiiiiiiiiiiiiiiiiiiiiiiiiiiiiiiiiiiiiiiii",
"iiiiiiiiiiiiiiiiiiiiiiiiiiiiiiiiiiiiiiiiiiiiiiiiii",
"iiiiiiiiiiiiiiiiiiiiiii   iiiiiiiiiiiiiiiiiiiiiiii",
"iiiiiiiiiiiiiiiiiiiii    iiiiiiiiiiiiiiiiiiiiiiiii",
"iiiiiiiiiiiiiiiiiiii    iiiiiiiiiiiiiiiiiiiiiiiiii",
"iiiiiiiiiiiiiiiiiii     iiiii iiiiiiiiiiiiiiiiiiii",
"iiiiiiiiiiiiiiiiii     iiiii  iiiiiiiiiiiiiiiiiiii",
"iiiiiiiiiiiiiiiii  .X  iiii   iiiiiiiiiiiiiiiiiiii",
"iiiiiiiiiiiiiiiii  %O  iii    iiiiiiiiiiiiiiiiiiii",
"iiiiiiiiiiiiiiiii  <#  iii   iiiiiiiiiiiiiiiiiiiii",
"iiiiiiiiiiiiiiii  O1&  iii   iiiiiiiiiiiiiiiiiiiii",
"iiiiiiiiiiiiiiiii O1>  iii   iiiiiiiiiiiiiiiiiiiii",
"iiiiiiiiiiiiiiiii o11#  ii   iiiiiiiiiiiiiiiiiiiii",
"iiiiiiiiiiiiiiiii  >1>.  ii   iiiiiiiiiiiiiiiiiiii",
"iiiiiiiiiiiiiiiiii #11*   ii  iiiiiiiiiiiiiiiiiiii",
"iiiiiiiiiiiiiiiiii  -11$   ii  iiiiiiiiiiiiiiiiiii",
"iiiiiiiiiiiiiiiiiii .:11&   ii  iiiiiiiiiiiiiiiiii",
"iiiiiiiiiiiiiiiiiiii .:11=.  ii iiiiiiiiiiiiiiiiii",
"iiiiiiiiiiiiiiiiiiiii  *11<@  iiiiiiiiiiiiiiiiiiii",
"iiiiiiiiiiiiiiiiiiiiii  &111*. iiiiiiiiiiiiiiiiiii",
"iiiiiiiiiiiiiiiiiiiiiii  #111:o  iiiiiiiiiiiiiiiii",
"iiiiiiiiiiiiiiiiiiiiiiii  *111<o  iiiiiiiiiiiiiiii",
"iiiiiiiiiiiiiiiiiiiiiiiii  >111<. iiiiiiiiiiiiiiii",
"iiiiiiiiiiiiiiiii1iiiiiiii #1111*  iiiiiiiiiiiiiii",
"iiiiiiiiiiiiiiii11iiiiiiii  11411X iiiiiiiiiiiiiii",
"iiiiiiiiiiiiiii11iiiiiiiii  -1541# iiiiiiiiiiiiiii",
"iiiiiiiiiiiiiii11iiiiiiiii  :1881% iiiiiiiiiiiiiii",
"iiiiiiiiiiiiiii11,iiiiiii  .11t81# iiiiiiiiiiiiiii",
"iiiiiiiiiiiiiii11<oiiiii   &10u61O iiiiiiiiiiiiiii",
"iiiiiiiiiiiiiii111>+      %17uy2<  iiiiiiiiiiiiiii",
"iiiiiiiiiiiiiii11111:%%%&>2wuu71% iiiiiiiiiiiiiiii",
"iiiiiiiiiiiiiiii9411111138yuuq1: iiiiiiiiiiiiiiiii",
"iiiiiiiiiiiiiiiiiuureeeyuuuy61-.iiiiiiiiiiiiiiiiii",
"iiiiiiiiiiiiiiiiiiuuuuuuuuq3># iiiiiiiiiiiiiiiiiii",
"iiiiiiiiiiiiiiiiiiiiiue8621;iiiiiiiiiiiiiiiiiiiiii",
"iiiiiiiiiiiiiiiiiiiiiiiiiiiiiiiiiiiiiiiiiiiiiiiiii",
"iiiiiiiiiiiiiiiiiiiiiiiiiiiiiiiiiiiiiiiiiiiiiiiiii",
"iiiiiiiiiiiiiiiiiiiiiiiiiiiiiiiiiiiiiiiiiiiiiiiiii",
"iiiiiiiiiiiiiiiiiiiiiiiiiiiiiiiiiiiiiiiiiiiiiiiiii",
"iiiiiiiiiiiiiiiiiiiiiiiiiiiiiiiiiiiiiiiiiiiiiiiiii",
"iiiiiiiiiiiiiiiiiiiiiiiiiiiiiiiiiiiiiiiiiiiiiiiiii",
"iiiiiiiiiiiiiiiiiiiiiiiiiiiiiiiiiiiiiiiiiiiiiiiiii",
"iiiiiiiiiiiiiiiiiiiiiiiiiiiiiiiiiiiiiiiiiiiiiiiiii",
"iiiiiiiiiiiiiiiiiiiiiiiiiiiiiiiiiiiiiiiiiiiiiiiiii",
"iiiiiiiiiiiiiiiiiiiiiiiiiiiiiiiiiiiiiiiiiiiiiiiiii"
};
