/* XPM */
static char *result[] = {
/* columns rows colors chars-per-pixel */
"50 50 35 1 ",
"  c #FFB300",
". c #FFB500",
"X c #FFB700",
"o c #FFB800",
"O c #FFB900",
"+ c #FFBB00",
"@ c #FFBC00",
"# c #FFBD00",
"$ c #FFBF00",
"% c #FFC100",
"& c #FFC200",
"* c #FFC400",
"= c #FFC600",
"- c #FFC800",
"; c #FFCA00",
": c #FFCC00",
"> c #FFCE00",
", c #FFD000",
"< c #FFD200",
"1 c #FFD400",
"2 c #FFD600",
"3 c #FFD800",
"4 c #FFDA00",
"5 c #FFDC00",
"6 c #FFDE00",
"7 c #FFE000",
"8 c #FFE200",
"9 c #FFE500",
"0 c #FFE700",
"q c #FFE900",
"w c #FFED00",
"e c #FFEF00",
"r c #FFF300",
"t c #FFF500",
"y c None",
/* pixels */
"yyyyyyyyyyyyyyyyyyyyyyyyyyyyyyyyyyyyyyyyyyyyyyyyyy",
"yyyyyyyyyyyyyyyyyyyyyyyyyyyyyyyyyyyyyyyyyyyyyyyyyy",
"yyyyyyyyyyyyyyyyyyyyyyyyyyyyyyyyyyyyyyyyyyyyyyyyyy",
"yyyyyyyyyyyyyyyyyyyyyyyyyyyyyyyyyyyyyyyyyyyyyyyyyy",
"yyyyyyyyyyyyyyyyyyyyyyyyyyyyyyyyyyyyyyyyyyyyyyyyyy",
"yyyyyyyyyyyyyyyyyyyyyyyyyyyyyyyyyyyyyyyyyyyyyyyyyy",
"yyyyyyyyyyyyyyyyyyyyyyyyyyyyyyyyyyyyyyyyyyyyyyyyyy",
"yyyyyyyyyyyyyyyyyyyyyyyyyyyyyyyyyyyyyyyyyyyyyyyyyy",
"yyyyyyyyyyyyyyyyyyyyyyyyyyyyyyyyyyyyyyyyyyyyyyyyyy",
"yyyyyyyyyyyyyyyyyyyyyyyyyyyyyyyyyyyyy yyyyyyyyyyyy",
"yyyyyyyyyyyyyyyyyyyyyyyyyyyyyyyyyyyyy  yyyyyyyyyyy",
"yyyyyyyyyyyyyyyyyyyyyyyyyyyyyyyyyyyyy  yyyyyyyyyyy",
"yyyyyyyyyyyyyyyyyyyyyyyyyyyyyyyyyyyy   yyyyyyyyyyy",
"yyyyyyyyyyyyyyyyyyyyyyyyyyyyyyyyyyyy   yyyyyyyyyyy",
"yyyyyyyyyyyyyyyyyyyyyyyyyyyyyyyyyyy     yyyyyyyyyy",
"yyyyyyyyyyyyyyyyyyyyyyyyyyyyyyyyyy      yyyyyyyyyy",
"yyyyyyyyyyyyyyyyyyyyyyyyyyyyyyyyy       yyyyyyyyyy",
"yyyyyyyyyyyyyyyyyyyyyyyyyyyyyyyyy      yy yyyyyyyy",
"yyyyyyyyyyyyyyyyyyyyyyyyyyyyyyyy       y   yyyyyyy",
"yyyyyyyyyyyyyyyyyyyyyyyyyyyyyy         y   yyyyyyy",
"yyyyyyyyyyyyyyyyyyyyyyyyy yyy     +*       yyyyyyy",
"yyyyyyyyyyyyyyyyyyyyyyyy  yy     .<;        yyyyyy",
"yyyyyyyyyyyyyyyyyyyyyyy         .>1:        yyyyyy",
"yyyyyyyyyyyyyyyyyyyyy          +,11:   OO   yyyyyy",
"yyyyyyyyyyyyyyyyyyyy  +:     +:1111* .*<*   yyyyyy",
"yyyyyyyyyyyyyyyyyyy  =11;++=,111111=;111:   yyyyyy",
"yyyyyyyyyyyyyyyyyy .:1111111111411111111<   yyyyyy",
"yyyyyyyyyyyyyyyyy .>11111111112r011111111   yyyyyy",
"yyyyyyyyyyyyyyyy  ;11114831112ett31111111  yyyyyyy",
"yyyyyyyyyyyyyyyy #1117etw1112ettt81111111  yyyyyyy",
"yyyyyyyyyyyyyyy  <12wttt6114etttt9111111:  yyyyyyy",
"yyyyyyyyyyyyyyy $12etttt96qtttttt7111111% yyyyyyyy",
"yyyyyyyyyyyyyyy ;1wtttttttttttttr2111111Xyyyyyyyyy",
"yyyyyyyyyyyyyyy :4tttttttttttttt7131111- yyyyyyyyy",
"yyyyyyyyyyyyyyyy-9ttttttttytttt827r511<oyyyyyyyyyy",
"yyyyyyyyyyyyyyyy@9ttyttttyytttttttt51<+yyyyyyyyyyy",
"yyyyyyyyyyyyyyyyy<ttyyyyyyytttttttt4<+yyyyyyyyyyyy",
"yyyyyyyyyyyyyyyyy&wtyyyyyyyyyyytttw:Xyyyyyyyyyyyyy",
"yyyyyyyyyyyyyyyyyyyttyyyyyyyyytttr5yyyyyyyyyyyyyyy",
"yyyyyyyyyyyyyyyyyyyyyyyyyyyyytttyyyyyyyyyyyyyyyyyy",
"yyyyyyyyyyyyyyyyyyyyyyyyyyyyyyyyyyyyyyyyyyyyyyyyyy",
"yyyyyyyyyyyyyyyyyyyyyyyyyyyyyyyyyyyyyyyyyyyyyyyyyy",
"yyyyyyyyyyyyyyyyyyyyyyyyyyyyyyyyyyyyyyyyyyyyyyyyyy",
"yyyyyyyyyyyyyyyyyyyyyyyyyyyyyyyyyyyyyyyyyyyyyyyyyy",
"yyyyyyyyyyyyyyyyyyyyyyyyyyyyyyyyyyyyyyyyyyyyyyyyyy",
"yyyyyyyyyyyyyyyyyyyyyyyyyyyyyyyyyyyyyyyyyyyyyyyyyy",
"yyyyyyyyyyyyyyyyyyyyyyyyyyyyyyyyyyyyyyyyyyyyyyyyyy",
"yyyyyyyyyyyyyyyyyyyyyyyyyyyyyyyyyyyyyyyyyyyyyyyyyy",
"yyyyyyyyyyyyyyyyyyyyyyyyyyyyyyyyyyyyyyyyyyyyyyyyyy",
"yyyyyyyyyyyyyyyyyyyyyyyyyyyyyyyyyyyyyyyyyyyyyyyyyy"
};
