/* XPM */
static char *result[] = {
/* columns rows colors chars-per-pixel */
"50 50 25 1 ",
"  c #FFB300",
". c #FFB500",
"X c #FFBB00",
"o c #FFC000",
"O c #FFC100",
"+ c #FFC400",
"@ c #FFCC00",
"# c #FFD000",
"$ c #FFD200",
"% c #FFD400",
"& c #FFD600",
"* c #FFDA00",
"= c #FFDC00",
"- c #FFDE00",
"; c #FFE000",
": c #FFE500",
"> c #FFE700",
", c #FFE900",
"< c #FFEB00",
"1 c #FFED00",
"2 c #FFEF00",
"3 c #FFF100",
"4 c #FFF300",
"5 c #FFF500",
"6 c None",
/* pixels */
"66666666666666666666666666666666666666666666666666",
"66666666666666666666666666666666666666666666666666",
"66666666666666666666666666666666666666666666666666",
"66666666666666666666666666666666666666666666666666",
"66666666666666666666666666666666666666666666666666",
"66666666666666666666666666666666666666666666666666",
"6666666666666666666666666666666666666   6666666666",
"666666666666666666666666666666666666   66666666666",
"66666666666666666666666666666666666    66666666666",
"6666666666666666666666666666666666     66666666666",
"6666666666666666666666666666666666     66666666666",
"666666666666666666666666666666666      66666666666",
"666666666666666666666666666666666      66666666666",
"666666666666666666666666666666666       6666666666",
"6666666666666666666666666666666666      6666666666",
"6666666666666666666666666666666666      6666666666",
"66666666666666666666666666666666 66      666666666",
"66666666666666666666666666666666  66     666666666",
"66666666666666666666666666666666   6     666666666",
"66666666666666666666666666666666   66    666666666",
"6666666666666666666666666666666     66    66666666",
"666666666666666666666666666666oXO#. 66    66666666",
"66666666666666666666666666666%%%%%+ 666  666666666",
"66666666666666666666666666%%%%%%%%$. 66  666666666",
"666666666666666666666666%%%%%%%%%%%@ 66  666666666",
"6666666666666666666666%%%%%%%%%%%%%%+66  666666666",
"66666666666666666666%%%%%%%%%%&=:=%%%66 6666666666",
"6666666666666666666%%%%%%%%%%:45552%%66 6666666666",
"666666666666666666%%%%%%%%%&255554*%%6666666666666",
"66666666666666666%%%%%%%%%&,55555;%%%6666666666666",
"6666666666666666%%%%=%%%%&2556651%%%%6666666666666",
"6666666666666666%%&<5=%%;4556655;%%%%6666666666666",
"666666666666666%%&25551455566554%%%%%6666666666666",
"666666666666666%%<5555555566655<%%%%66666666666666",
"666666666666666%;55565555566655:%%%%66666666666666",
"666666666666666%355665555666655-%%%666666666666666",
"666666666666666;556665555666655=%%6666666666666666",
"666666666666666<556665556666655;%66666666666666666",
"6666666666666665566666666666655>666666666666666666",
"66666666666666655666666666666556666666666666666666",
"66666666666666666666666666666666666666666666666666",
"66666666666666666666666666666666666666666666666666",
"66666666666666666666666666666666666666666666666666",
"66666666666666666666666666666666666666666666666666",
"66666666666666666666666666666666666666666666666666",
"66666666666666666666666666666666666666666666666666",
"66666666666666666666666666666666666666666666666666",
"66666666666666666666666666666666666666666666666666",
"66666666666666666666666666666666666666666666666666",
"66666666666666666666666666666666666666666666666666"
};
