/* XPM */
static char *_8f7ab2136ce46af8c414cfc1a1aa77fMXaLT2XVHoe7JW9t[] = {
/* columns rows colors chars-per-pixel */
"50 50 23 1 ",
"  c None",
". c #131313",
"X c #24112F",
"o c gray18",
"O c #373735",
"+ c #3C393D",
"@ c #464646",
"# c #494342",
"$ c #555553",
"% c #585858",
"& c #747474",
"* c #96442C",
"= c #B98768",
"- c #F2AF7D",
"; c #A7A7A9",
": c #E1BAAA",
"> c #ECC7B5",
", c #AEAEC5",
"< c #DCC7CC",
"1 c #FDD8C6",
"2 c gray88",
"3 c #F8F8F8",
"4 c white",
/* pixels */
"                                                  ",
"                                                  ",
"                      ooooo.                      ",
"                    oo%%%%%.oo...                 ",
"                    oo%%%%%.oo...                 ",
"                 ..o%%%%%oo%%%%..                 ",
"                ooo%%%%@@%%%%%@...                ",
"                ooo%%%%@@%%%%%@...                ",
"                .@@&%%%%%%%%@@......              ",
"              ..o%%&&&%%%%%%%%%%%o..              ",
"              ..o%%&&&%%%%%%%%%%%o..              ",
"              ..%%%%%%@&&&&%%%&%%%oo..            ",
"              ..%%%%%%@&&&&%%%&%%%oo..            ",
"              ..%%%%@@@%%%%@%%%@@@@@oo            ",
"              XX@%%@@@@@@@@@%%%%%@@@oo            ",
"              XX@%%@@@@@@@@@%%%%%@@@oo            ",
"              XX@@@@oo@@@@@@@@@ooo....            ",
"              XX@@@o111@@@@@@@@ooo..              ",
"              XX@@@o111@@@@@@@@ooo..              ",
"              XX1111111oo@@@@@@@@o..              ",
"                X111===oo===oo@@@...              ",
"                X111===oo===oo@@@...              ",
"                X111XX<oo--1==ooo.                ",
"                X111XX3----1==oooX                ",
"                X111XX3----1==oooX                ",
"                X111111--===oooXX                 ",
"                X111111--===oooXX                 ",
"                 XX-11---==oXXXXX                 ",
"                   XXXX====XXX                    ",
"                   XXXX====XXX                    ",
"                    XX-22442XX                    ",
"                    XX4;;44;XX                    ",
"                    XX4;;44;XX                    ",
"                    XX2;;22;XX                    ",
"                    XXX::--XOOX                   ",
"                    XXX::--XOOX                   ",
"                    XXX-->>XOOX                   ",
"                    XXX-->>XOOX                   ",
"                    XX+XXXX$OOX                   ",
"                      X##$$$XX                    ",
"                      X##$$$XX                    ",
"                       XXOOOXX                    ",
"                      X****X                      ",
"                      X****X                      ",
"                      X,,,,X                      ",
"                      XXXXX                       ",
"                      XXXXX                       ",
"                                                  ",
"                                                  ",
"                                                  "
};
