/* XPM */
static char *_e966acd41eb420ac3abfde8ade3f1102YQm5ARGSEs5nDgE[] = {
/* columns rows colors chars-per-pixel */
"50 50 24 1 ",
"  c None",
". c #000300",
"X c #000700",
"o c #040005",
"O c #131313",
"+ c #24112F",
"@ c gray18",
"# c #373735",
"$ c #434343",
"% c #444444",
"& c #464646",
"* c #555553",
"= c #555555",
"- c #565656",
"; c #585858",
": c #747474",
"> c #96442C",
", c #B98768",
"< c #F2AF7D",
"1 c #A7A7A9",
"2 c #E1BAAA",
"3 c #AEAEC5",
"4 c gray88",
"5 c white",
/* pixels */
"                                                  ",
"                                                  ",
"                      @@@@@                       ",
"                @@@@@@@;;;;@OO                    ",
"                @@@@@@@;;;;@OO                    ",
"                @&&;;;&@@;;;@@@                   ",
"                O@@&;;;&&&&=;;&@@O                ",
"                O@@&;;;&&&&=;;&@@O                ",
"              OO@@@@&&;;;==&;;;@@@OO              ",
"              @@&::;;;;;;;;;;;:;;&@@              ",
"              @@&::;;;;;;;;;;;:;;&@@              ",
"             @@@;;;;;;:::;;&:::;;;@@              ",
"             @@@;;;;;;:::;=&:::=;;@@              ",
"             @;;;;;;&&;;;;;@&&;;;;@@              ",
"             O&&;;;&@@;;;&&$@@&;;;OO              ",
"             O&&;;;$@@;;;&&&@@&;;;OO              ",
"             OOO&&&@$$&&&&&&&&&&&&OO              ",
"              OO&&&&&&&&&@@&&&&&&&OO              ",
"              OO&&&&&&&&&@@&&&&&&&OO              ",
"              OO@&&&&&&&&&&&&&&&&@OO              ",
"              OO<@@&&&&&&&&&&&&@@<OO              ",
"              OO<@@&&&&&&&&&&&&@@<OO              ",
"              OO<@@@&&&&&&&&&&@@@<OO              ",
"                Xoo@@@&&&&&&@@@oo.                ",
"                Xoo@@@&&&&&&@@@oo.                ",
"                 ..@@@@@@@@@@@@oo                 ",
"                 ..@@@@@@@@@@@@oo                 ",
"                   ooo,<<<<,ooo                   ",
"                 ++455444444554++                 ",
"                 ++455444444554++                 ",
"                +4445555555555444+                ",
"                +5515555555555155+                ",
"                +5515555555555155+                ",
"              ++455+5555555555+554++              ",
"             +<<2+++4455555544+++2<<++            ",
"             +<<2+++4455555544+++2<<++            ",
"             +22<+++##555555##+++<22++            ",
"             +22<+++##555555##+++<22++            ",
"              +++  +***++++***+  +++              ",
"                   +##+    +##+                   ",
"                   +##+    +##+                   ",
"                   +##+    +##+                   ",
"                 ++>33+    +33>++                 ",
"                 ++>33+    +33>++                 ",
"                 ++333+    +333++                 ",
"                   +++      +++                   ",
"                   +++      +++                   ",
"                                                  ",
"                                                  ",
"                                                  "
};
