/* XPM */
static char *result[] = {
/* columns rows colors chars-per-pixel */
"50 50 46 1 ",
"  c #101010",
". c #202020",
"X c #606060",
"o c gray44",
"O c #808080",
"+ c #9D9D9D",
"@ c #A0A0A0",
"# c gray64",
"$ c #A5A5A5",
"% c gray65",
"& c #A7A7A7",
"* c gray66",
"= c #A9A9A9",
"- c #AAAAAA",
"; c gray67",
": c #ACACAC",
"> c gray68",
", c #AEAEAE",
"< c gray69",
"1 c gray70",
"2 c #B4B4B4",
"3 c gray71",
"4 c #B6B6B6",
"5 c #B7B7B7",
"6 c gray72",
"7 c #B9B9B9",
"8 c gray73",
"9 c #BCBCBC",
"0 c gray74",
"q c gray",
"w c gray75",
"e c #C0C0C0",
"r c #C1C1C1",
"t c gray76",
"y c #C3C3C3",
"u c #C5C5C5",
"i c #C6C6C6",
"p c gray78",
"a c #C8C8C8",
"s c gray79",
"d c #CACACA",
"f c #CBCBCB",
"g c gray80",
"h c #CDCDCD",
"j c #CECECE",
"k c #D0D0D0",
/* pixels */
"eekeekkkeggee0<<<@@,<<O  kkkkkkaaauuee<@@><<@@@X..",
"eekeekkkeggee0<<<@@,<<O  kkkkkkaaauuee<@@><<@@@X..",
"kkgeeeggg99<<<00e,,@<<o..kkhaaaaaaaajj<,,@,,@<<o  ",
"kkehhheee<<qqe@@@>><<<X..kkeaaauuaee,,*%%@@@:<<o  ",
"kkehhheee<<qqe@@@>><<<X..kkeaaauuaee,,*%%@@@:<<o  ",
"aaaggeee<<<ee<<<:@@@::o..eeeaaaaajee@@***><<-@@o..",
"aauee<eee<<@@@@@@>>-@@o  ssarra<<@@@<<<@@<--@==X  ",
"aauee<eee<<@@@@@@>>-@@o  ssarra<<@@@<<<@@<--@==X  ",
"eee<<<@@<@@@@@@@<<<<@@o..eeaaajee@<<<<@@@@@@&@@X..",
"OOOOOooooXXoooooXXXoXXX..OOOOOOooXooOOOOOoooXooo  ",
"OOOOOooooXXoooooXXXoXXX..OOOOOOooXooOOOOOoooXooo  ",
".. ..   .    .  .   ..   ...  .   .....  ....   ..",
".. ..   .    .  .   ..   ...  .   .....  ....   ..",
"<<<@@@<<<OO..ettkeejeej00<<<55<**@XX..eeeekkkeekee",
"ee<>>@@@<OO..yeegeee66e<<332<<2@@$oo  keeehheeeq<<",
"ee<>>@@@<OO..yeegeee66e<<332<<2@@$oo  keeehheeeq<<",
"<<>@@>@@@OO  heeeggjeej99<<@@@>@@>oo..khheeepee<qq",
"<<@,,<<<<oo..aaaagge<<<eeee<@@@$$@XX  heedjjehheee",
"<<@,,<<<<oo..aaaagge<<<eeee<@@@$$@XX  heedjjehheee",
"<<@<<@==@oo  yaauee<--@--<<<<<@$$@oo  ette<<eee<<<",
"<<@<<>@@@oo..eyy<<<@@@;@@@@<<<@@@:oo..e<<<@@<<<@@@",
"<<@<<>@@@oo..eyy<<<@@@;@@@@<<<@@@:oo..e<<<@@<<<@@@",
"OOoOOoXXXoo..OooOOOOooOooooOoooXXoXX  OooOOOoOOoXX",
".. .....   ..    ...  ..... ...     .. ......     ",
".. .....   ..    ...  ..... ...     .. ......     ",
"eeeaaahhkkkee<eee<<<@@o..eeykkekkehhee<<<<,,@>>X..",
"eeeaaahhkkkee<eee<<<@@o..eeykkekkehhee<<<<,,@>>X..",
"kktaa9eeeeeee<eee<<<@@X  tteeeehheee<<<99<@@+@@O  ",
"kkeeefee<<<ee<<<<@@,<<o  kkjaaueeeeekk9<<<>>@@@O..",
"kkeeefee<<<ee<<<<@@,<<o  kkjaaueeeeekk9<<<>>@@@O..",
"aaaaae<<<<<<<<ee<***@@X  ggeiiajj<00<<e,,@,,@<<o  ",
"aauee<<<eee<<@@@@**#<<o  eet77<<<4<<<<e@@$@@@@@o  ",
"aauee<<<eee<<@@@@**#<<o  eet77<<<4<<<<e@@$@@@@@o  ",
"ee<<<<@@<@@<<@<<@>>@@@O..<<<<<000<@@@@<,,@,,<@@X  ",
"OOoOOoooOooooOoooOOoooX  OOoOOoOOoooOOoOOOOOoXXo..",
"OOoOOoooOooooOoooOOoooX  OOoOOoOOoooOOoOOOOOoXXo..",
"..    ..   ...  .     ...  .     .  ..   ... .. ..",
"..    ..   ...  .     ...  .     .  ..   ... .. ..",
"<<dkk<<<<OO  ettkeeaaajqq<<eee<<<<OO  ekkjeejkkkee",
"ww<<<<@@<OO..aaajtta88e<<11e<<<@@@OO..kkkeaaagg0<<",
"ww<<<<@@<OO..aaajtta88e<<11e<<<@@@OO..kkkeaaagg0<<",
"kk>@@><<<oo..aaaaggw<<keeeee<<<@@>oo..kkkjaapee<qq",
"<<@>>@<<@XX..jaai00<ww<<<ee<@@<==@oo  keeggge<<<<<",
"<<@>>@<<@XX..jaai00<ww<<<ee<@@<==@oo  keeggge<<<<<",
"@@@@@@==@oo  keee<<qee-@@;;-@@@@@@oo  kgge<<keeeee",
"<<@<<:@@@XX  e<<<<<@@@@;;@@@::@<<@XX  e<<<<<@<<@@@",
"<<@<<:@@@XX  e<<<<<@@@@;;@@@::@<<@XX  e<<<<<@<<@@@",
"OOOooXooOoo..OooOOOoXXoXXOOOOOOooXoo  oOOoOOOooOXX",
"...      ....    ..      .. .. ...  ...  ... ...  ",
"...      ....    ..      .. .. ...  ...  ... ...  "
};
